<svg id="visual" viewBox="0 0 900 600" width="900" height="600" xmlns="http://www.w3.org/2000/svg" xmlns:xlink="http://www.w3.org/1999/xlink" version="1.1"><rect x="0" y="0" width="900" height="600" fill="#001220"></rect><defs><linearGradient id="grad1_0" x1="33.3%" y1="100%" x2="100%" y2="0%"><stop offset="20%" stop-color="#fbae3c" stop-opacity="1"></stop><stop offset="80%" stop-color="#fbae3c" stop-opacity="1"></stop></linearGradient></defs><defs><linearGradient id="grad1_1" x1="33.3%" y1="100%" x2="100%" y2="0%"><stop offset="20%" stop-color="#fbae3c" stop-opacity="1"></stop><stop offset="80%" stop-color="#96446e" stop-opacity="1"></stop></linearGradient></defs><defs><linearGradient id="grad1_2" x1="33.3%" y1="100%" x2="100%" y2="0%"><stop offset="20%" stop-color="#001220" stop-opacity="1"></stop><stop offset="80%" stop-color="#96446e" stop-opacity="1"></stop></linearGradient></defs><defs><linearGradient id="grad2_0" x1="0%" y1="100%" x2="66.7%" y2="0%"><stop offset="20%" stop-color="#fbae3c" stop-opacity="1"></stop><stop offset="80%" stop-color="#fbae3c" stop-opacity="1"></stop></linearGradient></defs><defs><linearGradient id="grad2_1" x1="0%" y1="100%" x2="66.7%" y2="0%"><stop offset="20%" stop-color="#96446e" stop-opacity="1"></stop><stop offset="80%" stop-color="#fbae3c" stop-opacity="1"></stop></linearGradient></defs><defs><linearGradient id="grad2_2" x1="0%" y1="100%" x2="66.7%" y2="0%"><stop offset="20%" stop-color="#96446e" stop-opacity="1"></stop><stop offset="80%" stop-color="#001220" stop-opacity="1"></stop></linearGradient></defs><g transform="translate(900, 600)"><path d="M-432.7 0C-417.1 -57.4 -401.6 -114.9 -368.6 -152.7C-335.6 -190.5 -285.2 -208.7 -252.4 -252.4C-219.7 -296.2 -204.7 -365.4 -165.6 -399.7C-126.5 -434 -63.2 -433.3 0 -432.7L0 0Z" fill="#3d3056"></path><path d="M-288.4 0C-278.1 -38.3 -267.7 -76.6 -245.8 -101.8C-223.8 -127 -190.1 -139.1 -168.3 -168.3C-146.5 -197.4 -136.5 -243.6 -110.4 -266.5C-84.3 -289.4 -42.2 -288.9 0 -288.4L0 0Z" fill="#e1685e"></path><path d="M-144.2 0C-139 -19.1 -133.9 -38.3 -122.9 -50.9C-111.9 -63.5 -95.1 -69.6 -84.1 -84.1C-73.2 -98.7 -68.2 -121.8 -55.2 -133.2C-42.2 -144.7 -21.1 -144.4 0 -144.2L0 0Z" fill="#fbae3c"></path></g><g transform="translate(0, 0)"><path d="M432.7 0C414.5 54.8 396.4 109.6 368.6 152.7C340.9 195.8 303.6 227.1 270.8 270.8C238.1 314.6 209.9 370.7 165.6 399.7C121.2 428.8 60.6 430.7 0 432.7L0 0Z" fill="#3d3056"></path><path d="M288.4 0C276.3 36.5 264.2 73.1 245.8 101.8C227.3 130.5 202.4 151.4 180.5 180.5C158.7 209.7 140 247.1 110.4 266.5C80.8 285.8 40.4 287.1 0 288.4L0 0Z" fill="#e1685e"></path><path d="M144.2 0C138.2 18.3 132.1 36.5 122.9 50.9C113.6 65.3 101.2 75.7 90.3 90.3C79.4 104.9 70 123.6 55.2 133.2C40.4 142.9 20.2 143.6 0 144.2L0 0Z" fill="#fbae3c"></path></g></svg>