<svg id="visual" viewBox="0 0 900 600" width="900" height="600" xmlns="http://www.w3.org/2000/svg" xmlns:xlink="http://www.w3.org/1999/xlink" version="1.1"><rect x="0" y="0" width="900" height="600" fill="#001220"></rect><defs><linearGradient id="grad1_0" x1="33.3%" y1="0%" x2="100%" y2="100%"><stop offset="20%" stop-color="#001220" stop-opacity="1"></stop><stop offset="80%" stop-color="#001220" stop-opacity="1"></stop></linearGradient></defs><defs><linearGradient id="grad2_0" x1="0%" y1="0%" x2="66.7%" y2="100%"><stop offset="20%" stop-color="#001220" stop-opacity="1"></stop><stop offset="80%" stop-color="#001220" stop-opacity="1"></stop></linearGradient></defs><g transform="translate(900, 0)"><path d="M0 135.2C-10.8 136.1 -21.5 137 -30.1 131.8C-38.7 126.7 -45 115.5 -52.5 109C-60 102.6 -68.5 100.8 -77.9 97.7C-87.4 94.6 -97.7 90.2 -103.2 82.3C-108.7 74.4 -109.3 63 -110.8 53.4C-112.3 43.7 -114.7 35.8 -118.9 27.1C-123.2 18.5 -129.2 9.3 -135.2 0L0 0Z" fill="#FBAE3C"></path></g><g transform="translate(0, 600)"><path d="M0 -135.2C8.2 -126.8 16.4 -118.3 26.7 -117C37 -115.6 49.5 -121.4 56 -116.2C62.4 -111 62.9 -94.9 71.1 -89.1C79.2 -83.3 95.1 -87.8 105.7 -84.3C116.3 -80.8 121.6 -69.4 120.7 -58.1C119.8 -46.9 112.7 -35.7 114.1 -26C115.4 -16.4 125.3 -8.2 135.2 0L0 0Z" fill="#FBAE3C"></path></g></svg>