<svg id="visual" viewBox="0 0 900 600" width="900" height="600" xmlns="http://www.w3.org/2000/svg" xmlns:xlink="http://www.w3.org/1999/xlink" version="1.1"><rect x="0" y="0" width="900" height="600" fill="#001220"></rect><path d="M0 381L21.5 380.2C43 379.3 86 377.7 128.8 382.5C171.7 387.3 214.3 398.7 257.2 399.3C300 400 343 390 385.8 395C428.7 400 471.3 420 514.2 428.2C557 436.3 600 432.7 642.8 421.5C685.7 410.3 728.3 391.7 771.2 388.5C814 385.3 857 397.7 878.5 403.8L900 410L900 601L878.5 601C857 601 814 601 771.2 601C728.3 601 685.7 601 642.8 601C600 601 557 601 514.2 601C471.3 601 428.7 601 385.8 601C343 601 300 601 257.2 601C214.3 601 171.7 601 128.8 601C86 601 43 601 21.5 601L0 601Z" fill="#fa7268"></path><path d="M0 424L21.5 431.3C43 438.7 86 453.3 128.8 452.5C171.7 451.7 214.3 435.3 257.2 429.2C300 423 343 427 385.8 429.7C428.7 432.3 471.3 433.7 514.2 438.8C557 444 600 453 642.8 458.3C685.7 463.7 728.3 465.3 771.2 462.2C814 459 857 451 878.5 447L900 443L900 601L878.5 601C857 601 814 601 771.2 601C728.3 601 685.7 601 642.8 601C600 601 557 601 514.2 601C471.3 601 428.7 601 385.8 601C343 601 300 601 257.2 601C214.3 601 171.7 601 128.8 601C86 601 43 601 21.5 601L0 601Z" fill="#ef5f67"></path><path d="M0 477L21.5 481C43 485 86 493 128.8 497.3C171.7 501.7 214.3 502.3 257.2 501.3C300 500.3 343 497.7 385.8 491.2C428.7 484.7 471.3 474.3 514.2 471.7C557 469 600 474 642.8 475.5C685.7 477 728.3 475 771.2 468.2C814 461.3 857 449.7 878.5 443.8L900 438L900 601L878.5 601C857 601 814 601 771.2 601C728.3 601 685.7 601 642.8 601C600 601 557 601 514.2 601C471.3 601 428.7 601 385.8 601C343 601 300 601 257.2 601C214.3 601 171.7 601 128.8 601C86 601 43 601 21.5 601L0 601Z" fill="#e34c67"></path><path d="M0 500L21.5 506.5C43 513 86 526 128.8 529.7C171.7 533.3 214.3 527.7 257.2 527.3C300 527 343 532 385.8 526.7C428.7 521.3 471.3 505.7 514.2 501.5C557 497.3 600 504.7 642.8 505C685.7 505.3 728.3 498.7 771.2 498.2C814 497.7 857 503.3 878.5 506.2L900 509L900 601L878.5 601C857 601 814 601 771.2 601C728.3 601 685.7 601 642.8 601C600 601 557 601 514.2 601C471.3 601 428.7 601 385.8 601C343 601 300 601 257.2 601C214.3 601 171.7 601 128.8 601C86 601 43 601 21.5 601L0 601Z" fill="#d53867"></path><path d="M0 564L21.5 562.2C43 560.3 86 556.7 128.8 550.3C171.7 544 214.3 535 257.2 535.2C300 535.3 343 544.7 385.8 547.7C428.7 550.7 471.3 547.3 514.2 544.8C557 542.3 600 540.7 642.8 538.5C685.7 536.3 728.3 533.7 771.2 533.8C814 534 857 537 878.5 538.5L900 540L900 601L878.5 601C857 601 814 601 771.2 601C728.3 601 685.7 601 642.8 601C600 601 557 601 514.2 601C471.3 601 428.7 601 385.8 601C343 601 300 601 257.2 601C214.3 601 171.7 601 128.8 601C86 601 43 601 21.5 601L0 601Z" fill="#c62368"></path></svg>